<mxfile host="app.diagrams.net" modified="2022-12-14T22:41:59.240Z" agent="5.0 (Macintosh; Intel Mac OS X 10_15_7) AppleWebKit/537.36 (KHTML, like Gecko) Chrome/108.0.0.0 Safari/537.36" etag="IZu6zxyJh4Z--s9uqwHA" version="20.7.2" type="github">
  <diagram id="C5RBs43oDa-KdzZeNtuy" name="Page-1">
    <mxGraphModel dx="501" dy="396" grid="1" gridSize="10" guides="1" tooltips="1" connect="1" arrows="1" fold="1" page="1" pageScale="1" pageWidth="827" pageHeight="1169" math="0" shadow="0">
      <root>
        <mxCell id="WIyWlLk6GJQsqaUBKTNV-0" />
        <mxCell id="WIyWlLk6GJQsqaUBKTNV-1" parent="WIyWlLk6GJQsqaUBKTNV-0" />
        <mxCell id="dWBn1ZKpqhoYhMr2szk4-4" value="" style="edgeStyle=orthogonalEdgeStyle;rounded=0;orthogonalLoop=1;jettySize=auto;html=1;" edge="1" parent="WIyWlLk6GJQsqaUBKTNV-1" source="WIyWlLk6GJQsqaUBKTNV-3" target="dWBn1ZKpqhoYhMr2szk4-1">
          <mxGeometry relative="1" as="geometry" />
        </mxCell>
        <mxCell id="WIyWlLk6GJQsqaUBKTNV-3" value="Start" style="rounded=1;whiteSpace=wrap;html=1;fontSize=12;glass=0;strokeWidth=1;shadow=0;" parent="WIyWlLk6GJQsqaUBKTNV-1" vertex="1">
          <mxGeometry x="180" y="50" width="120" height="40" as="geometry" />
        </mxCell>
        <mxCell id="dWBn1ZKpqhoYhMr2szk4-13" value="" style="edgeStyle=orthogonalEdgeStyle;rounded=0;orthogonalLoop=1;jettySize=auto;html=1;" edge="1" parent="WIyWlLk6GJQsqaUBKTNV-1" source="WIyWlLk6GJQsqaUBKTNV-6" target="dWBn1ZKpqhoYhMr2szk4-12">
          <mxGeometry relative="1" as="geometry" />
        </mxCell>
        <mxCell id="dWBn1ZKpqhoYhMr2szk4-16" value="" style="edgeStyle=orthogonalEdgeStyle;rounded=0;orthogonalLoop=1;jettySize=auto;html=1;" edge="1" parent="WIyWlLk6GJQsqaUBKTNV-1" source="WIyWlLk6GJQsqaUBKTNV-6" target="dWBn1ZKpqhoYhMr2szk4-15">
          <mxGeometry relative="1" as="geometry" />
        </mxCell>
        <mxCell id="WIyWlLk6GJQsqaUBKTNV-6" value="If len(L)&amp;lt;=1" style="rhombus;whiteSpace=wrap;html=1;shadow=0;fontFamily=Helvetica;fontSize=12;align=center;strokeWidth=1;spacing=6;spacingTop=-4;" parent="WIyWlLk6GJQsqaUBKTNV-1" vertex="1">
          <mxGeometry x="370" y="260" width="100" height="80" as="geometry" />
        </mxCell>
        <mxCell id="dWBn1ZKpqhoYhMr2szk4-10" value="" style="edgeStyle=orthogonalEdgeStyle;rounded=0;orthogonalLoop=1;jettySize=auto;html=1;" edge="1" parent="WIyWlLk6GJQsqaUBKTNV-1" source="WIyWlLk6GJQsqaUBKTNV-10" target="dWBn1ZKpqhoYhMr2szk4-9">
          <mxGeometry relative="1" as="geometry" />
        </mxCell>
        <mxCell id="dWBn1ZKpqhoYhMr2szk4-30" value="" style="edgeStyle=orthogonalEdgeStyle;rounded=0;orthogonalLoop=1;jettySize=auto;html=1;" edge="1" parent="WIyWlLk6GJQsqaUBKTNV-1" source="WIyWlLk6GJQsqaUBKTNV-10" target="WIyWlLk6GJQsqaUBKTNV-6">
          <mxGeometry relative="1" as="geometry" />
        </mxCell>
        <mxCell id="WIyWlLk6GJQsqaUBKTNV-10" value="While list is sorted" style="rhombus;whiteSpace=wrap;html=1;shadow=0;fontFamily=Helvetica;fontSize=12;align=center;strokeWidth=1;spacing=6;spacingTop=-4;" parent="WIyWlLk6GJQsqaUBKTNV-1" vertex="1">
          <mxGeometry x="190" y="310" width="100" height="80" as="geometry" />
        </mxCell>
        <mxCell id="dWBn1ZKpqhoYhMr2szk4-6" value="" style="edgeStyle=orthogonalEdgeStyle;rounded=0;orthogonalLoop=1;jettySize=auto;html=1;" edge="1" parent="WIyWlLk6GJQsqaUBKTNV-1" source="dWBn1ZKpqhoYhMr2szk4-1" target="dWBn1ZKpqhoYhMr2szk4-5">
          <mxGeometry relative="1" as="geometry" />
        </mxCell>
        <mxCell id="dWBn1ZKpqhoYhMr2szk4-1" value="List of elements" style="rounded=0;whiteSpace=wrap;html=1;" vertex="1" parent="WIyWlLk6GJQsqaUBKTNV-1">
          <mxGeometry x="180" y="140" width="120" height="50" as="geometry" />
        </mxCell>
        <mxCell id="dWBn1ZKpqhoYhMr2szk4-8" value="" style="edgeStyle=orthogonalEdgeStyle;rounded=0;orthogonalLoop=1;jettySize=auto;html=1;" edge="1" parent="WIyWlLk6GJQsqaUBKTNV-1" source="dWBn1ZKpqhoYhMr2szk4-5" target="WIyWlLk6GJQsqaUBKTNV-10">
          <mxGeometry relative="1" as="geometry" />
        </mxCell>
        <mxCell id="dWBn1ZKpqhoYhMr2szk4-5" value="L=len(list)" style="rounded=0;whiteSpace=wrap;html=1;" vertex="1" parent="WIyWlLk6GJQsqaUBKTNV-1">
          <mxGeometry x="180" y="220" width="120" height="50" as="geometry" />
        </mxCell>
        <mxCell id="dWBn1ZKpqhoYhMr2szk4-9" value="Return (left)+pivot+(right)" style="rounded=0;whiteSpace=wrap;html=1;" vertex="1" parent="WIyWlLk6GJQsqaUBKTNV-1">
          <mxGeometry x="180" y="500" width="120" height="60" as="geometry" />
        </mxCell>
        <mxCell id="dWBn1ZKpqhoYhMr2szk4-12" value="Return List" style="whiteSpace=wrap;html=1;shadow=0;strokeWidth=1;spacing=6;spacingTop=-4;" vertex="1" parent="WIyWlLk6GJQsqaUBKTNV-1">
          <mxGeometry x="520" y="270" width="120" height="60" as="geometry" />
        </mxCell>
        <mxCell id="dWBn1ZKpqhoYhMr2szk4-18" value="" style="edgeStyle=orthogonalEdgeStyle;rounded=0;orthogonalLoop=1;jettySize=auto;html=1;" edge="1" parent="WIyWlLk6GJQsqaUBKTNV-1" source="dWBn1ZKpqhoYhMr2szk4-15" target="dWBn1ZKpqhoYhMr2szk4-17">
          <mxGeometry relative="1" as="geometry" />
        </mxCell>
        <mxCell id="dWBn1ZKpqhoYhMr2szk4-15" value="else" style="rhombus;whiteSpace=wrap;html=1;shadow=0;fontFamily=Helvetica;fontSize=12;align=center;strokeWidth=1;spacing=6;spacingTop=-4;" vertex="1" parent="WIyWlLk6GJQsqaUBKTNV-1">
          <mxGeometry x="440" y="390" width="100" height="80" as="geometry" />
        </mxCell>
        <mxCell id="dWBn1ZKpqhoYhMr2szk4-24" value="" style="edgeStyle=orthogonalEdgeStyle;rounded=0;orthogonalLoop=1;jettySize=auto;html=1;" edge="1" parent="WIyWlLk6GJQsqaUBKTNV-1" source="dWBn1ZKpqhoYhMr2szk4-17" target="dWBn1ZKpqhoYhMr2szk4-23">
          <mxGeometry relative="1" as="geometry" />
        </mxCell>
        <mxCell id="dWBn1ZKpqhoYhMr2szk4-17" value="left=[ ]&lt;br&gt;right=[ ]" style="whiteSpace=wrap;html=1;shadow=0;strokeWidth=1;spacing=6;spacingTop=-4;" vertex="1" parent="WIyWlLk6GJQsqaUBKTNV-1">
          <mxGeometry x="430" y="530" width="120" height="60" as="geometry" />
        </mxCell>
        <mxCell id="dWBn1ZKpqhoYhMr2szk4-26" value="" style="edgeStyle=orthogonalEdgeStyle;rounded=0;orthogonalLoop=1;jettySize=auto;html=1;" edge="1" parent="WIyWlLk6GJQsqaUBKTNV-1" source="dWBn1ZKpqhoYhMr2szk4-23" target="dWBn1ZKpqhoYhMr2szk4-25">
          <mxGeometry relative="1" as="geometry" />
        </mxCell>
        <mxCell id="dWBn1ZKpqhoYhMr2szk4-33" value="" style="edgeStyle=orthogonalEdgeStyle;rounded=0;orthogonalLoop=1;jettySize=auto;html=1;" edge="1" parent="WIyWlLk6GJQsqaUBKTNV-1" source="dWBn1ZKpqhoYhMr2szk4-23" target="dWBn1ZKpqhoYhMr2szk4-32">
          <mxGeometry relative="1" as="geometry" />
        </mxCell>
        <mxCell id="dWBn1ZKpqhoYhMr2szk4-23" value="If elements&amp;lt;pivot" style="rhombus;whiteSpace=wrap;html=1;shadow=0;fontFamily=Helvetica;fontSize=12;align=center;strokeWidth=1;spacing=6;spacingTop=-4;" vertex="1" parent="WIyWlLk6GJQsqaUBKTNV-1">
          <mxGeometry x="440" y="620" width="100" height="80" as="geometry" />
        </mxCell>
        <mxCell id="dWBn1ZKpqhoYhMr2szk4-25" value="left append(elements)" style="whiteSpace=wrap;html=1;shadow=0;strokeWidth=1;spacing=6;spacingTop=-4;" vertex="1" parent="WIyWlLk6GJQsqaUBKTNV-1">
          <mxGeometry x="550" y="720" width="120" height="60" as="geometry" />
        </mxCell>
        <mxCell id="dWBn1ZKpqhoYhMr2szk4-27" value="Right append(elements)" style="whiteSpace=wrap;html=1;shadow=0;strokeWidth=1;spacing=6;spacingTop=-4;" vertex="1" parent="WIyWlLk6GJQsqaUBKTNV-1">
          <mxGeometry x="300" y="760" width="120" height="60" as="geometry" />
        </mxCell>
        <mxCell id="dWBn1ZKpqhoYhMr2szk4-34" value="" style="edgeStyle=orthogonalEdgeStyle;rounded=0;orthogonalLoop=1;jettySize=auto;html=1;" edge="1" parent="WIyWlLk6GJQsqaUBKTNV-1" source="dWBn1ZKpqhoYhMr2szk4-32" target="dWBn1ZKpqhoYhMr2szk4-27">
          <mxGeometry relative="1" as="geometry" />
        </mxCell>
        <mxCell id="dWBn1ZKpqhoYhMr2szk4-32" value="Else" style="rhombus;whiteSpace=wrap;html=1;" vertex="1" parent="WIyWlLk6GJQsqaUBKTNV-1">
          <mxGeometry x="320" y="660" width="80" height="80" as="geometry" />
        </mxCell>
      </root>
    </mxGraphModel>
  </diagram>
</mxfile>
